PathFileType	4	(X/Y/Z)	./resultDataOpenSim/trcMotMarkerGrf/sub10/qtm-15-02.trc
DataRate	CameraRate	NumFrames	NumMarkers	Units	OrigDataRate	OrigDataStartFrame	OrigNumFrames
250.000000	250.000000	7	24	m	250.000000	118	469
Frame#	Time	L.Toe.Tip			R.Toe.Tip			L.Ankle.Lat			R.Ankle.Lat			L.Ankle.Med			R.Ankle.Med			L.Heel			R.Heel			L.Knee.Lat			R.Knee.Lat			L.Knee.Med			R.Knee.Med			L.Thigh.Upper			R.Thigh.Upper			L.ASIS			R.ASIS			V.Sacral			L.Acromium			R.Acromium			C7			L.Elbow			R.Elbow			L.Wrist.Lat			R.Wrist.Lat
		X1	Y1	Z1	X2	Y2	Z2	X3	Y3	Z3	X4	Y4	Z4	X5	Y5	Z5	X6	Y6	Z6	X7	Y7	Z7	X8	Y8	Z8	X9	Y9	Z9	X10	Y10	Z10	X11	Y11	Z11	X12	Y12	Z12	X13	Y13	Z13	X14	Y14	Z14	X15	Y15	Z15	X16	Y16	Z16	X17	Y17	Z17	X18	Y18	Z18	X19	Y19	Z19	X20	Y20	Z20	X21	Y21	Z21	X22	Y22	Z22	X23	Y23	Z23	X24	Y24	Z24

118	0.468	-0.14527456	0.12244516	-0.10917554	-0.76883207	0.038740626	0.047479173	-0.27559729	0.087043558	-0.14011297	-0.91077502	0.058391168	0.076728276	-0.27608076	0.11671757	-0.058304132	-0.88707953	0.082142797	-0.0067640215	-0.31599234	0.031202202	-0.094479276	-0.96029283	0.035052565	0.025288766	-0.43145049	0.44361662	-0.16083593	-0.77462405	0.43911919	0.12240096	-0.41026309	0.42835625	-0.040474744	-0.75417338	0.44045295	-0.0055000445	-0.57447507	0.80904169	-0.2022834	-0.68330962	0.84592361	0.17035644	-0.53123043	0.91773669	-0.12280815	-0.58748842	0.93037823	0.11723269	-0.7521473	0.93612679	-0.044935705	-0.59136919	1.3827563	-0.16854052	-0.61306761	1.3887623	0.15287327	-0.68394097	1.4201892	-0.016579474	-0.75316331	1.0948588	-0.25614307	-0.63914378	1.0507452	0.26956936	-0.69926431	0.85404215	-0.26731324	-0.43357432	0.91285596	0.2955492
119	0.472	-0.13374668	0.12422576	-0.1084353	-0.76876681	0.038634123	0.047423174	-0.26353932	0.087545453	-0.14026128	-0.91082834	0.058705477	0.07653651	-0.26494161	0.11699609	-0.058491222	-0.88652571	0.082262541	-0.0069988936	-0.303666	0.031059431	-0.095094263	-0.96022622	0.03561343	0.025066727	-0.42307412	0.44242256	-0.16065119	-0.77046775	0.43813002	0.12179562	-0.40315043	0.4265946	-0.040026132	-0.74940815	0.43934364	-0.0061223718	-0.56628817	0.80714608	-0.20200009	-0.67787841	0.84443455	0.17001244	-0.52388121	0.91625436	-0.12243228	-0.58162691	0.92880291	0.11735028	-0.74538357	0.93477939	-0.045479286	-0.58544738	1.380699	-0.1685946	-0.60676829	1.3872982	0.15272603	-0.67805663	1.4183035	-0.016562223	-0.7486571	1.0935413	-0.25479713	-0.63120101	1.0493888	0.27053688	-0.6972373	0.85236461	-0.26783793	-0.42365286	0.91383179	0.29459293
120	0.476	-0.12293179	0.12542678	-0.10791272	-0.76872807	0.038530715	0.04738077	-0.25231176	0.087718334	-0.14033296	-0.91066646	0.059068671	0.076333859	-0.25454214	0.11696893	-0.058666483	-0.88596029	0.082421943	-0.0072282	-0.29222131	0.030746376	-0.095443751	-0.96015311	0.036254517	0.024842719	-0.41455158	0.44131496	-0.16051422	-0.76627146	0.43709252	0.12117994	-0.39599608	0.4248816	-0.039697316	-0.74471216	0.43807266	-0.0067366484	-0.55798695	0.80519652	-0.201687	-0.67242232	0.84287121	0.16962867	-0.51658345	0.91472433	-0.12204619	-0.57573197	0.92718658	0.11750598	-0.73770143	0.93308877	-0.046604058	-0.57950751	1.3786554	-0.16869086	-0.60046921	1.385841	0.15254001	-0.67225078	1.4164579	-0.016553868	-0.74413209	1.0922032	-0.25346009	-0.62327085	1.0480809	0.2715021	-0.69524067	0.85071844	-0.26830318	-0.41381884	0.91485364	0.29359814
121	0.48	-0.11283609	0.12598223	-0.10761898	-0.76866651	0.038467217	0.047338797	-0.24191318	0.087528496	-0.14035268	-0.91037737	0.059475024	0.076083582	-0.24481703	0.11664194	-0.058820105	-0.88537041	0.082640878	-0.0074579515	-0.28166938	0.030245681	-0.095530259	-0.96006822	0.036996675	0.024608152	-0.40590338	0.44027797	-0.16039637	-0.76203096	0.43600719	0.12056079	-0.38877208	0.42323097	-0.039461037	-0.74011627	0.43664874	-0.0073736727	-0.54956633	0.80319228	-0.20134403	-0.66694382	0.84123938	0.16921348	-0.50931546	0.91313025	-0.12164983	-0.56979778	0.92553649	0.11771039	-0.72990782	0.93093264	-0.048077949	-0.57354004	1.3766323	-0.16882731	-0.59412312	1.3844046	0.15233293	-0.66657329	1.4146874	-0.016561032	-0.73940314	1.0908485	-0.25215441	-0.61534453	1.0468299	0.27245293	-0.69329577	0.84909903	-0.26868846	-0.40408423	0.91592715	0.29256584
122	0.484	-0.10344429	0.12586465	-0.10753885	-0.76854793	0.038454648	0.047275846	-0.23232619	0.086981002	-0.14034603	-0.91003851	0.059940663	0.075781131	-0.23568182	0.11604507	-0.058937132	-0.88474995	0.082938805	-0.0077055669	-0.27201178	0.029557443	-0.095431024	-0.95997056	0.037854283	0.024339064	-0.39717468	0.43930376	-0.1602639	-0.75774414	0.43488598	0.1199471	-0.38138672	0.42167235	-0.039255966	-0.73555708	0.43512594	-0.0080436212	-0.54106988	0.80113202	-0.20097796	-0.6614687	0.83955313	0.16879458	-0.50203206	0.91146401	-0.12123343	-0.5638246	0.92385971	0.11797198	-0.72276567	0.92845864	-0.049619247	-0.56753995	1.3746425	-0.16899789	-0.58771388	1.3829996	0.15209804	-0.66097185	1.4130056	-0.016616494	-0.73436404	1.0894945	-0.25082481	-0.60745314	1.0456573	0.27342595	-0.69133704	0.84751746	-0.26902214	-0.39445159	0.91706084	0.29149464
123	0.488	-0.094731484	0.12508342	-0.10762562	-0.76839511	0.038464419	0.047180475	-0.22352933	0.086108894	-0.1403274	-0.90971022	0.060501528	0.075457292	-0.22710342	0.11518405	-0.059010744	-0.88410097	0.083326867	-0.0080051651	-0.26324846	0.028677371	-0.095261147	-0.95985995	0.038840584	0.023993753	-0.38839688	0.438399	-0.16009194	-0.7534074	0.43375117	0.11934934	-0.3737494	0.4202368	-0.039032278	-0.73078333	0.43360751	-0.0086310845	-0.53255735	0.79902237	-0.20060839	-0.65601722	0.837827	0.16839141	-0.49470755	0.90974051	-0.12077406	-0.55782018	0.92215789	0.11829324	-0.71622152	0.92598796	-0.050999862	-0.56150185	1.3727039	-0.16919456	-0.58126081	1.3816332	0.15181741	-0.65525918	1.4113894	-0.016773387	-0.72917058	1.088165	-0.24934129	-0.59971722	1.0446066	0.27456809	-0.68926402	0.84600316	-0.26935404	-0.38491942	0.91826032	0.2903792
124	0.492	-0.086674973	0.12366751	-0.10781649	-0.76825169	0.038467771	0.047057802	-0.21550586	0.084947548	-0.14030134	-0.90940462	0.061179421	0.075110883	-0.2190938	0.11403941	-0.059034885	-0.88342306	0.083801841	-0.0083899561	-0.25536759	0.027591144	-0.095108044	-0.95973229	0.039951151	0.023525876	-0.37956654	0.43757819	-0.15986832	-0.74901443	0.43262686	0.11877479	-0.3658528	0.41895172	-0.038786835	-0.72559189	0.43216093	-0.0090122208	-0.52403736	0.7968789	-0.2002627	-0.65057992	0.83607938	0.16799275	-0.48735886	0.9079907	-0.12024965	-0.55179039	0.92043016	0.11867171	-0.70957126	0.92370118	-0.052157814	-0.555415	1.3708279	-0.1694126	-0.57478556	1.3803158	0.15148461	-0.64927548	1.4097809	-0.017051249	-0.72407579	1.0868843	-0.24763843	-0.59233998	1.0437345	0.27613405	-0.68701689	0.84458633	-0.26971522	-0.3754984	0.91952763	0.28922266
